<svg width="32" height="6" fill="none" xmlns="http://www.w3.org/2000/svg"><path d="M2.634 2.924a.888.888 0 0 0-.9-.914c-.497 0-.9.384-.9.914 0 .525.403.915.9.915.496 0 .9-.378.9-.915Zm.007 1.599v-.416c-.245.288-.61.467-1.046.467C.688 4.574 0 3.87 0 2.924c0-.94.715-1.656 1.615-1.656.424 0 .782.18 1.026.46v-.402h.814v3.197h-.814ZM7.41 3.813c-.286 0-.365-.102-.365-.37v-1.42h.524v-.697h-.524v-.78h-.834v.78H5.137V1.13c0-.268.106-.37.397-.37h.183V.14h-.402c-.688 0-1.012.217-1.012.882v.303H3.84v.697h.463v2.5h.834v-2.5h1.075V3.59c0 .652.258.934.933.934h.43v-.71H7.41ZM10.401 2.636c-.059-.415-.41-.664-.82-.664s-.748.242-.834.664h1.654Zm-1.661.5c.06.472.41.741.854.741.35 0 .623-.16.781-.416h.854c-.199.678-.828 1.113-1.655 1.113-1 0-1.7-.678-1.7-1.643 0-.966.74-1.663 1.72-1.663.987 0 1.702.704 1.702 1.663 0 .07-.007.14-.02.204H8.74ZM16.6 2.924a.9.9 0 0 0-.9-.914c-.497 0-.9.384-.9.914a.9.9 0 1 0 1.8 0Zm-2.622-1.598h.814v.415a1.327 1.327 0 0 1 1.046-.473c.894 0 1.595.71 1.595 1.65s-.715 1.656-1.615 1.656a1.3 1.3 0 0 1-1-.428v1.692h-.84V1.326ZM20.367 2.924a.888.888 0 0 0-.9-.914c-.496 0-.9.384-.9.914 0 .525.404.915.9.915.497 0 .9-.378.9-.915Zm.008 1.599v-.416c-.245.288-.61.467-1.046.467-.907 0-1.595-.704-1.595-1.65 0-.94.714-1.656 1.615-1.656.423 0 .78.18 1.026.46v-.402h.814v3.197h-.814ZM12.511 1.64s.207-.372.715-.372c.217 0 .357.072.357.072v.816s-.306-.183-.588-.146c-.28.037-.459.287-.458.62v1.893h-.84V1.326h.814v.313ZM24.99 1.326l-2.055 4.502h-.866l.806-1.74-1.364-2.762h.982l.799 1.845.819-1.845h.88ZM31.551 1.253 29.514.117c-.598-.333-1.346.084-1.346.75v.117c0 .106.058.203.152.256l.385.214c.113.063.254-.016.254-.141v-.29c0-.145.162-.236.292-.163l1.765.984c.13.072.13.253 0 .325l-1.765.984c-.13.073-.292-.018-.292-.163v-.154c0-.667-.747-1.084-1.346-.75l-2.038 1.136a.852.852 0 0 0 0 1.5l2.038 1.136c.598.334 1.346-.083 1.346-.75v-.117a.293.293 0 0 0-.152-.255l-.385-.215c-.113-.063-.254.016-.254.142v.29c0 .145-.162.235-.292.163l-1.765-.984a.185.185 0 0 1 0-.326l1.765-.985c.13-.072.292.018.292.163v.155c0 .667.748 1.084 1.346.75l2.037-1.136a.851.851 0 0 0 0-1.5Z" fill="#000"/></svg>