<svg width="32" height="12" fill="none" xmlns="http://www.w3.org/2000/svg"><path d="M6.195 11.58V6.569h5.308l.57.742.588-.742h19.256v4.665s-.503.34-1.085.346H20.168l-.643-.79v.79h-2.103v-1.35s-.288.188-.908.188h-.717v1.162h-3.184l-.57-.759-.575.759H6.195ZM0 2.79 1.197 0h2.07l.678 1.561V0h2.573l.403 1.13L7.31 0H18.86v.566S19.467 0 20.462 0l3.747.013.669 1.542V0h2.153l.592.886V0h2.172v5.014h-2.172l-.567-.89v.89h-3.16l-.318-.79h-.85l-.314.79H20.27c-.857 0-1.408-.557-1.408-.557v.557h-3.238l-.643-.79v.79H2.96l-.317-.79h-.848l-.317.79H0V2.79Z" fill="#fff"/><path d="M1.619.62.006 4.375h1.05l.297-.752h1.731l.298.752h1.075L2.845.621H1.619Zm.598.871.528 1.312H1.69l.528-1.312ZM4.566 4.37V.619L6.06.624l.867 2.419.848-2.425h1.482V4.37h-.938V1.606l-.995 2.765h-.822l-.998-2.765v2.765h-.938ZM9.9 4.37V.619h3.062v.838H10.85v.643h2.06v.79h-2.063v.666h2.112v.816h-3.06ZM13.503.62v3.754h.937V3.04h.394l1.126 1.334h1.146L15.87 2.992A1.143 1.143 0 0 0 16.9 1.84c0-.79-.62-1.216-1.311-1.216L13.503.621Zm.937.84h1.072c.256 0 .445.2.445.393 0 .25-.243.393-.432.393H14.44V1.46ZM18.241 4.37h-.956V.619h.956V4.37ZM20.513 4.37h-.208c-1.001 0-1.606-.786-1.606-1.858 0-1.098.601-1.891 1.862-1.891h1.037v.89h-1.072c-.512 0-.877.4-.877 1.01 0 .727.416 1.03 1.011 1.03h.247l-.394.82ZM22.555.62l-1.613 3.75h1.05l.297-.751h1.731l.298.752h1.072L23.777.618 22.555.62Zm.595.871.528 1.312h-1.056l.528-1.312ZM25.498 4.37V.619h1.194l1.523 2.358V.618h.938V4.37h-1.156l-1.561-2.42v2.42h-.938ZM6.838 10.937V7.183H9.9v.839H7.788v.643h2.064v.79H7.788v.666H9.9v.816H6.838ZM21.835 10.937V7.183h3.062v.839h-2.112v.643h2.054v.79h-2.054v.666h2.112v.816h-3.062ZM10.018 10.937l1.491-1.853-1.526-1.9h1.18l.91 1.174.911-1.175h1.136l-1.507 1.875 1.495 1.875h-1.181l-.883-1.155-.861 1.155-1.165.004ZM14.22 7.187v3.753h.962V9.756h.99c.834 0 1.468-.445 1.468-1.306 0-.713-.496-1.26-1.347-1.26h-2.074v-.003Zm.962.847h1.04c.27 0 .464.167.464.432 0 .25-.192.432-.467.432h-1.037v-.864ZM18.043 7.183v3.754h.938V9.602h.393l1.126 1.335h1.146L20.41 9.554a1.143 1.143 0 0 0 1.03-1.152c0-.79-.62-1.215-1.312-1.215l-2.086-.004Zm.94.842h1.073c.255 0 .444.201.444.393 0 .25-.243.394-.432.394h-1.084v-.787ZM25.332 10.12h1.878c.279 0 .397-.15.397-.313 0-.157-.118-.317-.397-.317h-.848c-.736 0-1.148-.448-1.148-1.123 0-.601.377-1.18 1.472-1.18h1.826l-.393.844h-1.58c-.301 0-.394.16-.394.31 0 .157.115.327.345.327h.89c.822 0 1.177.467 1.177 1.078 0 .656-.396 1.194-1.222 1.194h-2.003v-.82ZM28.775 10.12h1.878c.278 0 .397-.15.397-.313 0-.157-.119-.317-.397-.317h-.848c-.736 0-1.149-.448-1.149-1.123 0-.601.378-1.18 1.472-1.18h1.827l-.393.844H29.98c-.3 0-.394.16-.394.31 0 .157.116.327.346.327h.89c.822 0 1.177.467 1.177 1.078 0 .656-.397 1.194-1.222 1.194h-2.003v-.82Z" fill="#016FD0"/></svg>