<svg width="28" height="12" fill="none" xmlns="http://www.w3.org/2000/svg"><path fill-rule="evenodd" clip-rule="evenodd" d="M5.116 1.544c-.328.405-.853.724-1.378.679-.066-.547.191-1.129.492-1.488C4.558.32 5.133.023 5.597 0c.055.57-.158 1.128-.48 1.544Zm.476.787c-.463-.028-.885.145-1.226.284-.219.09-.405.166-.546.166-.159 0-.352-.08-.57-.17-.284-.118-.61-.252-.95-.246-.783.012-1.51.473-1.91 1.208-.82 1.47-.213 3.648.58 4.845.389.593.854 1.242 1.466 1.22.27-.011.463-.097.664-.186.231-.102.471-.208.846-.208.361 0 .59.104.811.203.21.094.41.185.71.179.634-.011 1.033-.593 1.421-1.185.42-.637.603-1.257.631-1.352l.004-.01-.015-.008a2.131 2.131 0 0 1-1.221-1.947c-.01-1.15.849-1.733.984-1.824l.016-.012c-.546-.843-1.4-.934-1.695-.957Zm4.392 7.232V.678h3.2c1.651 0 2.805 1.186 2.805 2.918 0 1.733-1.176 2.93-2.85 2.93h-1.832v3.037H9.984Zm1.323-7.722h1.526c1.149 0 1.805.638 1.805 1.761 0 1.123-.656 1.767-1.81 1.767h-1.52V1.84Zm9.052 6.657c-.35.695-1.12 1.134-1.952 1.134-1.23 0-2.09-.764-2.09-1.915 0-1.14.832-1.795 2.369-1.892l1.651-.103v-.49c0-.724-.453-1.117-1.263-1.117-.667 0-1.154.359-1.252.906h-1.193c.038-1.151 1.078-1.989 2.483-1.989 1.515 0 2.5.826 2.5 2.109v4.422h-1.225V8.498h-.028Zm-1.597.08c-.705 0-1.154-.354-1.154-.895 0-.559.432-.884 1.258-.935l1.471-.097v.502c0 .832-.678 1.424-1.575 1.424Zm6.913 1.333c-.53 1.556-1.137 2.069-2.428 2.069-.098 0-.427-.011-.503-.034V10.88c.082.011.284.023.388.023.585 0 .914-.257 1.116-.924l.12-.393-2.242-6.469h1.384l1.558 5.25h.028l1.558-5.25H28l-2.325 6.794Z" fill="#000"/></svg>