<svg width="32" height="6" fill="none" xmlns="http://www.w3.org/2000/svg"><path fill-rule="evenodd" clip-rule="evenodd" d="M1.444.114H0V5.14h1.426c.769 0 1.313-.169 1.8-.581.563-.47.92-1.182.92-1.933 0-1.481-1.107-2.513-2.702-2.513ZM2.59 3.903c-.319.263-.713.394-1.35.394H.975V.977h.262c.638 0 1.013.112 1.35.393.338.3.545.77.545 1.257 0 .488-.207.976-.544 1.276Zm2.007 1.238h.975V.114h-.975V5.14Zm3.377-3.095c-.6-.225-.77-.356-.77-.638 0-.319.32-.544.732-.544.3 0 .544.113.788.394l.525-.656A2.217 2.217 0 0 0 7.766.039c-.9 0-1.576.619-1.576 1.444 0 .694.32 1.032 1.239 1.37.394.131.581.225.675.281.206.131.3.319.3.525 0 .413-.319.713-.77.713-.45 0-.843-.244-1.068-.675l-.62.619c.451.656.995.957 1.745.957 1.013 0 1.726-.676 1.726-1.651 0-.807-.338-1.163-1.444-1.576Zm1.744.581c0 1.482 1.163 2.627 2.664 2.627.413 0 .788-.076 1.22-.282V3.81c-.395.394-.732.563-1.183.563-.975 0-1.688-.732-1.688-1.745 0-.957.732-1.726 1.65-1.726.47 0 .826.17 1.22.563V.32A2.353 2.353 0 0 0 12.4 0c-1.482 0-2.683 1.182-2.683 2.626Z" fill="#000"/><path fill-rule="evenodd" clip-rule="evenodd" d="M16.658.001c-1.482 0-2.683 1.163-2.683 2.589 0 1.538 1.145 2.664 2.683 2.664 1.5 0 2.682-1.145 2.682-2.627 0-1.463-1.163-2.626-2.682-2.626Z" fill="#DB8135"/><path fill-rule="evenodd" clip-rule="evenodd" d="M21.554 3.49 20.222.114h-1.088l2.139 5.158h.525L23.974.114h-1.07l-1.35 3.376Zm2.87 1.651h2.777v-.844H25.4v-1.35h1.725v-.864H25.4V.977h1.8V.114h-2.776V5.14Zm6.66-3.545c0-.938-.638-1.482-1.782-1.482h-1.445V5.14h.975V3.134h.132l1.35 2.007h1.201l-1.576-2.12c.732-.15 1.145-.656 1.145-1.425Zm-1.97.844h-.282V.902h.3c.62 0 .938.262.938.75 0 .507-.318.788-.956.788ZM31.657.56c0 .038-.027.059-.08.059h-.018V.503h.02c.052 0 .078.019.078.057Zm.157.304-.146-.183a.122.122 0 0 0 .098-.124c0-.087-.06-.136-.169-.136h-.141v.443h.105V.693l.124.171h.129ZM32 .642a.385.385 0 0 0-.38-.386h-.003a.386.386 0 0 0-.385.384v.002c0 .215.173.387.387.387.209 0 .381-.175.381-.387Zm-.078.001a.311.311 0 0 1-.305.316.313.313 0 0 1-.308-.316c0-.176.138-.317.308-.317.169 0 .305.143.305.317Z" fill="#000"/></svg>