<svg width="30" height="12" fill="none" xmlns="http://www.w3.org/2000/svg"><path d="M14.002 9.195H12.9V.625h2.92c.74 0 1.371.247 1.887.74.528.493.792 1.096.792 1.807a2.37 2.37 0 0 1-.792 1.818c-.51.488-1.141.729-1.887.729h-1.818v3.476Zm0-7.514v2.988h1.841c.436 0 .803-.149 1.09-.442.293-.292.442-.648.442-1.05 0-.395-.15-.745-.442-1.038-.287-.304-.648-.453-1.09-.453h-1.841v-.005ZM21.379 3.138c.814 0 1.457.218 1.927.654.47.436.706 1.032.706 1.79v3.613h-1.05V8.38h-.046c-.453.672-1.061 1.004-1.818 1.004-.649 0-1.188-.189-1.624-.573a1.832 1.832 0 0 1-.654-1.434c0-.608.23-1.09.689-1.446.459-.361 1.072-.54 1.835-.54.654 0 1.193.121 1.612.362v-.252c0-.384-.15-.706-.453-.975a1.554 1.554 0 0 0-1.067-.402c-.614 0-1.101.258-1.457.78l-.97-.608c.534-.774 1.326-1.158 2.37-1.158Zm-1.423 4.256c0 .287.12.528.367.717.241.19.528.287.855.287.464 0 .877-.172 1.239-.517.361-.344.545-.745.545-1.21-.344-.27-.82-.407-1.434-.407-.448 0-.82.109-1.119.321-.304.224-.453.493-.453.809ZM30 3.327l-3.671 8.444h-1.136l1.365-2.954-2.42-5.49h1.198l1.744 4.21h.023l1.698-4.21H30Z" fill="#3C4043"/><path d="M9.621 5.025c0-.36-.032-.703-.092-1.033H4.913v1.893h2.659a2.277 2.277 0 0 1-.987 1.525v1.228h1.583c.924-.855 1.453-2.12 1.453-3.613Z" fill="#4285F4"/><path d="M6.585 7.41c-.44.297-1.007.47-1.67.47-1.283 0-2.37-.863-2.76-2.027H.523v1.266a4.914 4.914 0 0 0 4.391 2.707c1.327 0 2.442-.436 3.254-1.188L6.585 7.41Z" fill="#34A853"/><path d="M2.001 4.913c0-.327.055-.643.154-.94V2.706H.523A4.888 4.888 0 0 0 0 4.913c0 .794.189 1.543.522 2.206l1.633-1.266a2.96 2.96 0 0 1-.154-.94Z" fill="#FABB05"/><path d="M4.914 1.945c.725 0 1.373.25 1.886.737L8.202 1.28C7.35.487 6.24 0 4.914 0A4.915 4.915 0 0 0 .523 2.706l1.632 1.267c.39-1.165 1.477-2.028 2.76-2.028Z" fill="#E94235"/></svg>