<svg width="23" height="14" fill="none" xmlns="http://www.w3.org/2000/svg"><path fill-rule="evenodd" clip-rule="evenodd" d="M22.431 11.338v-.272h-.07l-.082.186-.082-.186h-.07v.272h.05v-.205l.076.177h.052l.077-.177v.205h.05Zm-.449 0v-.225h.091v-.046h-.232v.046h.091v.225h.05Z" fill="#F79410"/><path fill-rule="evenodd" clip-rule="evenodd" d="M14.387 12.503H8.264V1.497h6.125v11.006Z" fill="#FF5F00"/><path fill-rule="evenodd" clip-rule="evenodd" d="M8.651 7a6.989 6.989 0 0 1 2.674-5.503A7 7 0 0 0 0 7a7 7 0 0 0 11.325 5.503A6.988 6.988 0 0 1 8.65 7Z" fill="#EB001B"/><path fill-rule="evenodd" clip-rule="evenodd" d="M22.65 7a7 7 0 0 1-11.325 5.503A6.987 6.987 0 0 0 13.999 7a6.988 6.988 0 0 0-2.674-5.503A7 7 0 0 1 22.65 7Z" fill="#F79410"/></svg>