<svg width="32" height="8" fill="none" xmlns="http://www.w3.org/2000/svg"><path d="M11.965 1.747h-1.77a.247.247 0 0 0-.244.208l-.716 4.541a.148.148 0 0 0 .146.17h.846c.12 0 .224-.088.243-.208l.193-1.224a.247.247 0 0 1 .243-.208h.56c1.167 0 1.84-.565 2.016-1.683.08-.49.003-.874-.226-1.143-.252-.296-.698-.453-1.29-.453Zm.205 1.659c-.097.635-.583.635-1.052.635h-.267l.187-1.186a.148.148 0 0 1 .146-.125h.122c.32 0 .622 0 .778.182.093.11.121.27.086.494Zm5.089-.02h-.848a.148.148 0 0 0-.146.124l-.038.237-.059-.086c-.184-.266-.593-.355-1.002-.355-.937 0-1.737.71-1.893 1.705-.08.497.034.972.316 1.303.258.304.628.431 1.068.431.755 0 1.174-.485 1.174-.485l-.038.235a.148.148 0 0 0 .145.17h.764c.121.001.225-.088.244-.207l.458-2.902a.148.148 0 0 0-.145-.17Zm-1.182 1.65a.945.945 0 0 1-.957.81c-.246 0-.443-.08-.57-.23-.125-.148-.173-.36-.133-.595a.95.95 0 0 1 .95-.816c.241 0 .437.08.566.23.13.153.18.366.144.6Zm5.698-1.65h-.852a.247.247 0 0 0-.204.107l-1.175 1.732-.498-1.664a.247.247 0 0 0-.237-.176h-.837a.149.149 0 0 0-.14.196l.938 2.754-.882 1.246a.148.148 0 0 0 .12.233h.852c.08 0 .156-.04.202-.106l2.834-4.09a.148.148 0 0 0-.121-.233Z" fill="#253B80"/><path d="M24.596 1.747h-1.771a.247.247 0 0 0-.243.208l-.716 4.541a.148.148 0 0 0 .146.17h.908a.173.173 0 0 0 .17-.145l.203-1.287a.247.247 0 0 1 .243-.208h.56c1.167 0 1.84-.565 2.016-1.683.08-.49.004-.874-.226-1.143-.251-.296-.697-.453-1.29-.453Zm.204 1.659c-.096.635-.582.635-1.051.635h-.267l.187-1.186a.148.148 0 0 1 .146-.125h.122c.32 0 .622 0 .778.182.093.11.12.27.085.494Zm5.09-.02h-.848a.147.147 0 0 0-.146.124l-.037.237-.06-.086c-.183-.266-.593-.355-1.001-.355-.937 0-1.737.71-1.893 1.705-.081.497.034.972.315 1.303.26.304.629.431 1.069.431.755 0 1.173-.485 1.173-.485l-.038.235a.148.148 0 0 0 .146.17h.764c.12.001.224-.088.243-.207l.458-2.902a.149.149 0 0 0-.146-.17Zm-1.183 1.65a.945.945 0 0 1-.957.81c-.245 0-.443-.08-.569-.23-.125-.148-.172-.36-.133-.595a.95.95 0 0 1 .95-.816c.241 0 .437.08.566.23.13.153.18.366.143.6Zm2.182-3.164-.727 4.624a.148.148 0 0 0 .146.17h.73a.246.246 0 0 0 .243-.208l.717-4.54a.148.148 0 0 0-.146-.17h-.818a.148.148 0 0 0-.145.124ZM5.968 1.985a4.251 4.251 0 0 1-.025.143C5.623 3.772 4.527 4.34 3.127 4.34h-.712a.346.346 0 0 0-.342.293l-.365 2.314-.103.656a.183.183 0 0 0 .18.21h1.263c.15 0 .277-.108.3-.256l.013-.064.238-1.51.015-.083a.304.304 0 0 1 .3-.257h.19c1.224 0 2.183-.497 2.463-1.935.117-.601.056-1.103-.253-1.456-.098-.11-.216-.2-.346-.267Z" fill="#179BD7"/><path d="M5.633 1.852a2.564 2.564 0 0 0-.312-.07 3.956 3.956 0 0 0-.628-.045H2.79c-.15 0-.278.11-.3.257l-.406 2.565-.011.074a.347.347 0 0 1 .342-.293h.712c1.4 0 2.496-.568 2.816-2.212.01-.05.017-.097.025-.143a1.7 1.7 0 0 0-.335-.133Z" fill="#222D65"/><path d="M2.49 1.994a.304.304 0 0 1 .3-.257h1.903c.226 0 .436.015.628.046.13.02.258.05.384.091.094.032.182.068.263.111.095-.608 0-1.021-.33-1.396C5.277.177 4.624 0 3.787 0H1.357a.347.347 0 0 0-.343.293L.003 6.706a.21.21 0 0 0 .206.241h1.499l.376-2.388.405-2.565Z" fill="#253B80"/></svg>