<svg width="28" height="10" fill="none" xmlns="http://www.w3.org/2000/svg"><path fill-rule="evenodd" clip-rule="evenodd" d="M14.48 2.89c-.015 1.26 1.123 1.963 1.981 2.38.881.43 1.177.705 1.174 1.088-.007.587-.703.846-1.355.856-1.137.018-1.797-.307-2.323-.552l-.41 1.916c.528.243 1.504.455 2.516.464 2.376 0 3.931-1.173 3.94-2.992.009-2.308-3.193-2.435-3.171-3.467.007-.313.306-.647.96-.732.324-.042 1.217-.075 2.23.391L20.42.39A6.063 6.063 0 0 0 18.303 0c-2.236 0-3.81 1.189-3.822 2.89ZM24.243.16c-.434 0-.8.253-.963.641l-3.394 8.105h2.374l.473-1.306h2.901l.274 1.306H28L26.174.16h-1.932Zm.332 2.362.685 3.284h-1.877l1.192-3.284ZM11.602.16 9.73 8.906h2.263L13.863.16h-2.26Zm-3.347 0L5.9 6.113 4.947 1.05C4.835.486 4.394.16 3.904.16H.054L0 .414c.79.171 1.688.448 2.232.744.333.18.428.339.538.768l1.804 6.98h2.391L10.631.16H8.255Z" fill="#1A1F71"/></svg>